<mxfile host="app.diagrams.net" modified="2022-09-21T07:34:57.125Z" agent="5.0 (Windows NT 10.0; Win64; x64) AppleWebKit/537.36 (KHTML, like Gecko) Chrome/105.0.0.0 Safari/537.36" etag="QtMqGDpRTuF8xv6K_wC0" version="20.3.0" type="github">
  <diagram id="xrRC_XWQ-WyCFgSP2Sfr" name="Page-1">
    <mxGraphModel dx="1829" dy="1033" grid="1" gridSize="10" guides="1" tooltips="1" connect="1" arrows="1" fold="1" page="1" pageScale="1" pageWidth="827" pageHeight="1169" math="0" shadow="0">
      <root>
        <mxCell id="0" />
        <mxCell id="1" parent="0" />
        <mxCell id="Py_wtbG0bEQOZcLqvOqA-1" value="Testing out" style="rounded=1;whiteSpace=wrap;html=1;" vertex="1" parent="1">
          <mxGeometry x="260" y="210" width="120" height="60" as="geometry" />
        </mxCell>
      </root>
    </mxGraphModel>
  </diagram>
</mxfile>
